# xmcd CD database file
#
# Track frame offsets:
#	150
#	24167
#	127706
#
# Disc length: 1744 seconds
#
# Revision: 0
# Processed by: cddbd v1.5.1PL0 Copyright (c) Steve Scherf et al.
# Submitted via: CDex 1.51
#
DISCID=1306ce03
DTITLE=ascended master series - a guided meditation with ascended master archangel michael
DYEAR=1900
DGENRE=New Age
TTITLE0=introduction
TTITLE1=meditation
TTITLE2=blessing
EXTD=
EXTT0=
EXTT1=
EXTT2=
PLAYORDER=
